<svg height="438pt" viewBox="0 0 438 438.85714" width="438pt" xmlns="http://www.w3.org/2000/svg"><path d="m420.207031 0h-54.839843c-10.105469 0-18.296876 8.191406-18.296876 18.292969v330.988281c0 6.207031 1.445313 12.332031 4.222657 17.886719l33.3125 66.625c1.554687 3.101562 4.714843 5.054687 8.179687 5.054687s6.625-1.953125 8.179688-5.054687l33.3125-66.625c2.777344-5.554688 4.222656-11.679688 4.222656-17.890625v-330.984375c0-10.101563-8.191406-18.292969-18.292969-18.292969zm-27.421875 409.257812-21.777344-43.550781h43.554688zm27.429688-61.839843h-54.859375v-274.273438h54.859375zm0-292.570313h-54.859375v-36.554687c0-.003907.003906-.007813.011719-.007813h54.839843c.003907 0 .007813.003906.007813.007813zm0 0"/><path d="m241.117188 0h-213.261719c-15.121094 0-27.425781 12.304688-27.425781 27.429688v383.988281c0 15.125 12.304687 27.4375 27.425781 27.4375h265.144531c15.125 0 27.429688-12.3125 27.429688-27.4375v-332.945313zm5.382812 31.054688 42.542969 42.089843h-29.375c-5.167969 0-13.167969-7.519531-13.167969-12.375zm55.644531 380.363281c0 5.046875-4.101562 9.152343-9.144531 9.152343h-265.144531c-5.042969 0-9.140625-4.105468-9.140625-9.152343v-383.988281c0-5.046876 4.097656-9.144532 9.140625-9.144532h200.359375v42.484375c0 14.898438 16.167968 30.660157 31.453125 30.660157h42.476562zm0 0"/><path d="m109.355469 146.285156h109.714843c5.054688 0 9.144532-4.089844 9.144532-9.140625 0-5.054687-4.089844-9.144531-9.144532-9.144531h-109.714843c-5.050781 0-9.140625 4.089844-9.140625 9.144531 0 5.050781 4.089844 9.140625 9.140625 9.140625zm0 0"/><path d="m264.785156 182.855469h-201.140625c-5.054687 0-9.144531 4.089843-9.144531 9.144531s4.089844 9.144531 9.144531 9.144531h201.140625c5.054688 0 9.144532-4.089843 9.144532-9.144531s-4.089844-9.144531-9.144532-9.144531zm0 0"/><path d="m219.070312 256c5.054688 0 9.144532-4.089844 9.144532-9.144531 0-5.050781-4.089844-9.140625-9.144532-9.140625h-109.714843c-5.050781 0-9.140625 4.089844-9.140625 9.140625 0 5.054687 4.089844 9.144531 9.140625 9.144531zm0 0"/><path d="m264.785156 292.570312h-201.140625c-5.054687 0-9.144531 4.089844-9.144531 9.144532 0 5.054687 4.089844 9.140625 9.144531 9.140625h201.140625c5.054688 0 9.144532-4.085938 9.144532-9.140625 0-5.054688-4.089844-9.144532-9.144532-9.144532zm0 0"/><path d="m219.070312 347.429688h-109.714843c-5.050781 0-9.140625 4.089843-9.140625 9.140624 0 5.054688 4.089844 9.144532 9.140625 9.144532h109.714843c5.054688 0 9.144532-4.089844 9.144532-9.144532 0-5.050781-4.089844-9.140624-9.144532-9.140624zm0 0"/></svg>