<?xml version="1.0"?>
<svg xmlns="http://www.w3.org/2000/svg" id="Layer_1" data-name="Layer 1" viewBox="0 0 128 128" width="512" height="512"><title>STOPWATCH</title><path d="M92.9,31.587l4.157-5.842a1.75,1.75,0,0,0-.411-2.44l-4.89-3.48a1.751,1.751,0,0,0-2.44.41l-4.72,6.625A49.985,49.985,0,0,0,68.75,22.673V6.5A1.75,1.75,0,0,0,67,4.75H61A1.75,1.75,0,0,0,59.25,6.5V22.673A49.985,49.985,0,0,0,43.405,26.86l-4.72-6.625a1.75,1.75,0,0,0-2.44-.41l-4.89,3.48a1.75,1.75,0,0,0-.411,2.44L35.1,31.587a50.4,50.4,0,1,0,57.8,0Zm-1.749-7.9,2.039,1.451L89.97,29.666q-1.077-.65-2.189-1.246ZM62.75,8.25h2.5V22.474c-.417-.01-.831-.032-1.25-.032s-.833.021-1.25.032ZM34.811,25.142,36.85,23.69l3.369,4.729q-1.111.6-2.189,1.246ZM64,119.75a46.9,46.9,0,1,1,46.9-46.9A46.957,46.957,0,0,1,64,119.75Z"/><path d="M95.565,41.653a1.325,1.325,0,0,0-.373-.373,44.314,44.314,0,0,0-62.385,0,1.325,1.325,0,0,0-.373.373,44.313,44.313,0,0,0,0,62.384,1.345,1.345,0,0,0,.379.379,44.312,44.312,0,0,0,62.378,0,1.345,1.345,0,0,0,.379-.379,44.313,44.313,0,0,0,0-62.384ZM100.654,74.6h4.206a40.744,40.744,0,0,1-10.742,25.893l-2.962-2.962A1.75,1.75,0,1,0,88.681,100l2.962,2.962A40.742,40.742,0,0,1,65.75,113.706V109.5a1.75,1.75,0,0,0-3.5,0v4.206a40.742,40.742,0,0,1-25.893-10.742L39.319,100a1.75,1.75,0,1,0-2.475-2.475l-2.962,2.962A40.744,40.744,0,0,1,23.141,74.6h4.206a1.75,1.75,0,1,0,0-3.5H23.141A40.742,40.742,0,0,1,33.882,45.2l2.962,2.962a1.75,1.75,0,0,0,2.475-2.475l-2.962-2.962A40.743,40.743,0,0,1,62.25,31.987v4.206a1.75,1.75,0,0,0,3.5,0V31.987A40.743,40.743,0,0,1,91.643,42.729L88.681,45.69a1.75,1.75,0,1,0,2.475,2.475L94.118,45.2A40.742,40.742,0,0,1,104.859,71.1h-4.206a1.75,1.75,0,1,0,0,3.5Z"/><path d="M80.952,53.413,66.634,67.74a5.741,5.741,0,0,0-7.739,7.74L56.1,78.272a1.75,1.75,0,1,0,2.475,2.475l2.794-2.794a5.741,5.741,0,0,0,7.737-7.737l14.32-14.329a1.75,1.75,0,1,0-2.476-2.475ZM64,75.1a2.25,2.25,0,1,1,2.25-2.25A2.253,2.253,0,0,1,64,75.1Z"/></svg>
