<svg xmlns="http://www.w3.org/2000/svg">
    <symbol id="arrow" viewBox="0 0 512.002 512.002">
        <g>
            <path d="M388.425,241.951L151.609,5.79c-7.759-7.733-20.321-7.72-28.067,0.04c-7.74,7.759-7.72,20.328,0.04,28.067l222.72,222.105    L123.574,478.106c-7.759,7.74-7.779,20.301-0.04,28.061c3.883,3.89,8.97,5.835,14.057,5.835c5.074,0,10.141-1.932,14.017-5.795    l236.817-236.155c3.737-3.718,5.834-8.778,5.834-14.05S392.156,245.676,388.425,241.951z" data-original="#000000" class="active-path" data-old_color="#000000" fill="#FFFFFF"/>
        </g>
    </symbol>

    <symbol id="contract" viewBox="0 0 438 438.85714">
        <path d="m420.207031 0h-54.839843c-10.105469 0-18.296876 8.191406-18.296876 18.292969v330.988281c0 6.207031 1.445313 12.332031 4.222657 17.886719l33.3125 66.625c1.554687 3.101562 4.714843 5.054687 8.179687 5.054687s6.625-1.953125 8.179688-5.054687l33.3125-66.625c2.777344-5.554688 4.222656-11.679688 4.222656-17.890625v-330.984375c0-10.101563-8.191406-18.292969-18.292969-18.292969zm-27.421875 409.257812-21.777344-43.550781h43.554688zm27.429688-61.839843h-54.859375v-274.273438h54.859375zm0-292.570313h-54.859375v-36.554687c0-.003907.003906-.007813.011719-.007813h54.839843c.003907 0 .007813.003906.007813.007813zm0 0"/>
        <path d="m241.117188 0h-213.261719c-15.121094 0-27.425781 12.304688-27.425781 27.429688v383.988281c0 15.125 12.304687 27.4375 27.425781 27.4375h265.144531c15.125 0 27.429688-12.3125 27.429688-27.4375v-332.945313zm5.382812 31.054688 42.542969 42.089843h-29.375c-5.167969 0-13.167969-7.519531-13.167969-12.375zm55.644531 380.363281c0 5.046875-4.101562 9.152343-9.144531 9.152343h-265.144531c-5.042969 0-9.140625-4.105468-9.140625-9.152343v-383.988281c0-5.046876 4.097656-9.144532 9.140625-9.144532h200.359375v42.484375c0 14.898438 16.167968 30.660157 31.453125 30.660157h42.476562zm0 0"/>
        <path d="m109.355469 146.285156h109.714843c5.054688 0 9.144532-4.089844 9.144532-9.140625 0-5.054687-4.089844-9.144531-9.144532-9.144531h-109.714843c-5.050781 0-9.140625 4.089844-9.140625 9.144531 0 5.050781 4.089844 9.140625 9.140625 9.140625zm0 0"/>
        <path d="m264.785156 182.855469h-201.140625c-5.054687 0-9.144531 4.089843-9.144531 9.144531s4.089844 9.144531 9.144531 9.144531h201.140625c5.054688 0 9.144532-4.089843 9.144532-9.144531s-4.089844-9.144531-9.144532-9.144531zm0 0"/>
        <path d="m219.070312 256c5.054688 0 9.144532-4.089844 9.144532-9.144531 0-5.050781-4.089844-9.140625-9.144532-9.140625h-109.714843c-5.050781 0-9.140625 4.089844-9.140625 9.140625 0 5.054687 4.089844 9.144531 9.140625 9.144531zm0 0"/>
        <path d="m264.785156 292.570312h-201.140625c-5.054687 0-9.144531 4.089844-9.144531 9.144532 0 5.054687 4.089844 9.140625 9.144531 9.140625h201.140625c5.054688 0 9.144532-4.085938 9.144532-9.140625 0-5.054688-4.089844-9.144532-9.144532-9.144532zm0 0"/>
        <path d="m219.070312 347.429688h-109.714843c-5.050781 0-9.140625 4.089843-9.140625 9.140624 0 5.054688 4.089844 9.144532 9.140625 9.144532h109.714843c5.054688 0 9.144532-4.089844 9.144532-9.144532 0-5.050781-4.089844-9.140624-9.144532-9.140624zm0 0"/>
    </symbol>

    <symbol id="facebook" viewBox="0 0 24 24">
        <g>
            <path d="m15.997 3.985h2.191v-3.816c-.378-.052-1.678-.169-3.192-.169-3.159 0-5.323 1.987-5.323 5.639v3.361h-3.486v4.266h3.486v10.734h4.274v-10.733h3.345l.531-4.266h-3.877v-2.939c.001-1.233.333-2.077 2.051-2.077z" data-original="#000000" class="active-path" data-old_color="#000000" fill="#FFFFFF"/>
        </g>
    </symbol>

    <symbol id="instagram" viewBox="0 0 438.536 438.536">
        <g>
            <path d="M421.981,16.562C410.941,5.519,397.711,0,382.298,0H56.248C40.83,0,27.604,5.521,16.561,16.562   C5.52,27.6,0.001,40.828,0.001,56.243V382.29c0,15.413,5.518,28.644,16.56,39.683c11.043,11.04,24.272,16.563,39.687,16.563   h326.046c15.41,0,28.644-5.523,39.684-16.563c11.043-11.039,16.557-24.27,16.557-39.683V56.243   C438.534,40.825,433.021,27.604,421.981,16.562z M157.462,158.025c17.224-16.652,37.924-24.982,62.097-24.982   c24.36,0,45.153,8.33,62.381,24.982c17.228,16.655,25.837,36.785,25.837,60.386c0,23.598-8.609,43.729-25.837,60.379   c-17.228,16.659-38.014,24.988-62.381,24.988c-24.172,0-44.87-8.336-62.097-24.988c-17.228-16.652-25.841-36.781-25.841-60.379   C131.621,194.81,140.234,174.681,157.462,158.025z M388.865,370.589c0,4.945-1.718,9.083-5.141,12.416   c-3.433,3.33-7.519,4.996-12.282,4.996h-305.2c-4.948,0-9.091-1.666-12.419-4.996c-3.333-3.326-4.998-7.471-4.998-12.416V185.575   H89.08c-3.805,11.993-5.708,24.462-5.708,37.402c0,36.553,13.322,67.715,39.969,93.511c26.65,25.786,58.721,38.685,96.217,38.685   c24.744,0,47.583-5.903,68.527-17.703c20.937-11.807,37.486-27.839,49.676-48.112c12.183-20.272,18.274-42.4,18.274-66.38   c0-12.94-1.91-25.406-5.715-37.402h38.547v185.014H388.865z M388.865,115.626c0,5.52-1.903,10.184-5.716,13.99   c-3.805,3.809-8.466,5.711-13.989,5.711h-49.676c-5.517,0-10.185-1.903-13.99-5.711c-3.806-3.806-5.708-8.47-5.708-13.99V68.522   c0-5.33,1.902-9.945,5.708-13.848c3.806-3.901,8.474-5.854,13.99-5.854h49.676c5.523,0,10.185,1.952,13.989,5.854   c3.812,3.903,5.716,8.518,5.716,13.848V115.626z" data-original="#000000" class="active-path" data-old_color="#000000" fill="#FFFFFF"/>
        </g>
    </symbol>

    <symbol id="like" viewBox="0 0 64 64">
        <path d="m60 45h-5.5c-.276 0-.5-.224-.5-.5 0-.109.035-.213.1-.3 1.871-2.493 2.9-5.583 2.9-8.7v-.5c0-2.757-2.243-5-5-5-1.103 0-2 .897-2 2v1.725c0 2.49-.97 4.83-2.73 6.591-.586.585-1.247 1.091-1.966 1.501l-5.57 3.183h-2.734v-2h-18.019c1.261-1.674 2.019-3.747 2.019-6 0-5.514-4.486-10-10-10s-10 4.486-10 10 4.486 10 10 10c1.422 0 2.774-.303 4-.841v16.841h22v-2h2.808l5 2h15.192c1.654 0 3-1.346 3-3 0-.771-.301-1.468-.78-2 .48-.532.78-1.229.78-2s-.301-1.468-.78-2c.48-.532.78-1.229.78-2s-.301-1.468-.78-2c.48-.532.78-1.229.78-2 0-1.654-1.346-3-3-3zm-57-8c0-4.411 3.589-8 8-8s8 3.589 8 8c0 1.893-.664 3.633-1.768 5.004-.792-.986-1.796-1.763-2.931-2.278 1.034-.917 1.699-2.239 1.699-3.726 0-2.757-2.243-5-5-5s-5 2.243-5 5c0 1.487.665 2.809 1.699 3.726-1.135.516-2.139 1.293-2.931 2.278-1.104-1.371-1.768-3.111-1.768-5.004zm5-1c0-1.654 1.346-3 3-3s3 1.346 3 3-1.346 3-3 3-3-1.346-3-3zm-1.792 7.391c1.125-1.492 2.895-2.391 4.792-2.391s3.667.9 4.792 2.391c-1.338 1.005-2.994 1.609-4.792 1.609s-3.454-.604-4.792-1.609zm10.792 1.609h14v16h-14zm18 16h-2v-16h2zm25 0h-14.808l-5-2h-3.192v-12h3.266l6.03-3.446c.873-.499 1.677-1.112 2.388-1.824 2.138-2.138 3.316-4.981 3.316-8.005v-1.725c1.654 0 3 1.346 3 3v.5c0 2.687-.888 5.351-2.501 7.501-.322.43-.499.962-.499 1.499 0 1.378 1.122 2.5 2.5 2.5h5.5c.551 0 1 .449 1 1s-.449 1-1 1h-5v2h5c.551 0 1 .449 1 1s-.449 1-1 1h-5v2h5c.551 0 1 .449 1 1s-.449 1-1 1h-5v2h5c.551 0 1 .449 1 1s-.449 1-1 1z"/><path d="m53 28c5.514 0 10-4.486 10-10s-4.486-10-10-10-10 4.486-10 10 4.486 10 10 10zm-4.792-3.609c1.125-1.492 2.895-2.391 4.792-2.391s3.667.9 4.792 2.391c-1.338 1.005-2.994 1.609-4.792 1.609s-3.454-.604-4.792-1.609zm1.792-7.391c0-1.654 1.346-3 3-3s3 1.346 3 3-1.346 3-3 3-3-1.346-3-3zm3-7c4.411 0 8 3.589 8 8 0 1.893-.664 3.633-1.768 5.004-.792-.986-1.796-1.763-2.931-2.278 1.034-.917 1.699-2.239 1.699-3.726 0-2.757-2.243-5-5-5s-5 2.243-5 5c0 1.487.665 2.809 1.699 3.726-1.135.516-2.139 1.293-2.931 2.278-1.104-1.371-1.768-3.111-1.768-5.004 0-4.411 3.589-8 8-8z"/><path d="m27 29c7.72 0 14-6.28 14-14s-6.28-14-14-14-14 6.28-14 14 6.28 14 14 14zm0-2c-3.37 0-6.416-1.402-8.598-3.647.468-1.531 1.314-2.868 2.427-3.914l1.566 6.264 4.605-3.453 4.605 3.454 1.566-6.264c1.112 1.046 1.958 2.383 2.427 3.914-2.182 2.244-5.228 3.646-8.598 3.646zm-4-16c0-2.206 1.794-4 4-4s4 1.794 4 4-1.794 4-4 4-4-1.794-4-4zm4 8.438-1.865-2.238c.604-.126 1.227-.2 1.865-.2s1.261.074 1.865.2zm3.896-1.551c.181.086.359.176.533.274l-1.034 4.136-1.953-1.465zm-7.792 0 2.454 2.945-1.953 1.465-1.034-4.136c.174-.099.352-.188.533-.274zm3.896-14.887c6.617 0 12 5.383 12 12 0 2.409-.72 4.649-1.947 6.531-1.218-2.756-3.501-4.858-6.286-5.868 1.361-1.101 2.233-2.781 2.233-4.663 0-3.309-2.691-6-6-6s-6 2.691-6 6c0 1.882.872 3.562 2.232 4.663-2.785 1.009-5.068 3.112-6.286 5.868-1.226-1.882-1.946-4.122-1.946-6.531 0-6.617 5.383-12 12-12z"/><path d="m23 31h2v2h-2z"/><path d="m27 31h16v2h-16z"/><path d="m23 35h20v2h-20z"/><path d="m23 39h18v2h-18z"/><path d="m19 57h2v2h-2z"/><path d="m23 57h2v2h-2z"/><path d="m27 57h2v2h-2z"/>
    </symbol>

    <symbol id="mail" viewBox="0 0 512 512">
        <g><g>
        <g>
            <path d="M467,61H45c-6.927,0-13.412,1.703-19.279,4.51L255,294.789l51.389-49.387c0,0,0.004-0.005,0.005-0.007    c0.001-0.002,0.005-0.004,0.005-0.004L486.286,65.514C480.418,62.705,473.929,61,467,61z" data-original="#000000" class="active-path" data-old_color="#000000" fill="#FFFFFF"/>
        </g>
        </g><g>
        <g>
            <path d="M507.496,86.728L338.213,256.002L507.49,425.279c2.807-5.867,4.51-12.352,4.51-19.279V106    C512,99.077,510.301,92.593,507.496,86.728z" data-original="#000000" class="active-path" data-old_color="#000000" fill="#FFFFFF"/>
        </g>
        </g><g>
        <g>
            <path d="M4.51,86.721C1.703,92.588,0,99.073,0,106v300c0,6.923,1.701,13.409,4.506,19.274L173.789,256L4.51,86.721z" data-original="#000000" class="active-path" data-old_color="#000000" fill="#FFFFFF"/>
        </g>
        </g><g>
        <g>
            <path d="M317.002,277.213l-51.396,49.393c-2.93,2.93-6.768,4.395-10.605,4.395s-7.676-1.465-10.605-4.395L195,277.211    L25.714,446.486C31.582,449.295,38.071,451,45,451h422c6.927,0,13.412-1.703,19.279-4.51L317.002,277.213z" data-original="#000000" class="active-path" data-old_color="#000000" fill="#FFFFFF"/>
        </g>
        </g></g>
    </symbol>

    <symbol id="money" viewBox="0 0 512 512">
        <g>
        <g>
            <path d="M196,60c-5.52,0-10,4.48-10,10s4.48,10,10,10s10-4.48,10-10S201.52,60,196,60z"/>
        </g>
        </g>
        <g>
        <g>
            <path d="M256,140c-5.514,0-10-4.486-10-10c0-5.514,4.486-10,10-10c3.542,0,7.282,1.807,10.815,5.227
			c3.971,3.841,10.3,3.736,14.141-0.232c3.84-3.969,3.736-10.3-0.232-14.141c-5.075-4.911-10.153-7.689-14.724-9.205V90
			c0-5.523-4.478-10-10-10c-5.522,0-10,4.477-10,10v11.72c-11.639,4.128-20,15.243-20,28.28c0,16.542,13.458,30,30,30
			c5.514,0,10,4.486,10,10c0,5.514-4.486,10-10,10c-4.272,0-8.884-2.687-12.985-7.565c-3.553-4.228-9.862-4.773-14.089-1.219
			c-4.228,3.554-4.773,9.862-1.22,14.089c5.346,6.359,11.632,10.79,18.294,13.024V210c0,5.523,4.478,10,10,10
			c5.522,0,10-4.477,10-10v-11.72c11.639-4.128,20-15.243,20-28.28C286,153.458,272.542,140,256,140z"/>
        </g>
        </g>
        <g>
        <g>
            <path d="M472,146c-22.056,0-40,17.944-40,40v71.27c-13.284-3.421-27.943,0.112-38.281,10.449l-67.065,67.065
			C317.204,344.221,312,356.781,312,370.15V429h-10c-5.522,0-10,4.477-10,10v63c0,5.523,4.478,10,10,10h140c5.522,0,10-4.477,10-10
			v-63c0-5.523-4.478-10-10-10h-10v-4.72c0-2.629,1.068-5.206,2.932-7.069l62.42-62.42C506.798,345.344,512,332.786,512,319.43V186
			C512,163.944,494.056,146,472,146z M432,492H312v-43h120V492z M492,319.43c0,8.014-3.122,15.55-8.791,21.219l-62.42,62.42
			c-5.586,5.586-8.789,13.317-8.789,21.211V429h-80v-58.85c0-8.022,3.12-15.556,8.791-21.219l67.07-67.07
			c7.506-7.507,19.564-7.844,27.45-0.768c0.057,0.05,0.114,0.101,0.172,0.15c0.228,0.195,0.442,0.405,0.658,0.621
			C439.919,285.639,442,290.659,442,296s-2.081,10.361-5.861,14.139l-49.69,49.69c-3.905,3.905-3.905,10.237,0,14.143
			c3.906,3.905,10.236,3.906,14.143,0l49.688-49.687C457.837,316.731,462,306.687,462,296c0-9.84-3.538-19.132-10-26.44V186
			c0-11.028,8.972-20,20-20s20,8.972,20,20V319.43z"/>
        </g>
        </g>
        <g>
        <g>
            <path d="M210,429h-10v-58.85c0-13.369-5.204-25.929-14.648-35.361l-67.07-67.07C107.943,257.38,93.284,253.848,80,257.27V186
			c0-22.056-17.944-40-40-40c-22.056,0-40,17.944-40,40v133.43c0,13.356,5.202,25.914,14.648,35.361l62.42,62.419
			c1.864,1.864,2.932,4.44,2.932,7.07V429H70c-5.522,0-10,4.477-10,10v63c0,5.523,4.478,10,10,10h140c5.522,0,10-4.477,10-10v-63
			C220,433.477,215.522,429,210,429z M28.791,340.65C23.122,334.98,20,327.444,20,319.43V186c0-11.028,8.972-20,20-20
			s20,8.972,20,20v83.559c-6.462,7.308-10,16.599-10,26.441c0,10.687,4.163,20.731,11.719,28.281l50,50
			c3.906,3.905,10.236,3.905,14.143,0c3.905-3.905,3.905-10.237,0-14.143l-50.003-50.003C72.081,306.361,70,301.341,70,296
			s2.081-10.361,5.856-14.135c0.218-0.217,0.433-0.427,0.66-0.622l0.172-0.15c7.885-7.076,19.944-6.738,27.45,0.768l67.075,67.074
			c5.666,5.659,8.786,13.192,8.786,21.214V429h-80v-4.72c0.001-7.894-3.202-15.625-8.788-21.211L28.791,340.65z M200,492H80v-43h120
			V492z"/>
        </g>
        </g>
        <g>
        <g>
            <path d="M256,0c-82.71,0-150,67.29-150,150s67.29,150,150,150s150-67.29,150-150S338.71,0,256,0z M256,280
			c-71.683,0-130-58.318-130-130S184.317,20,256,20s130,58.318,130,130S327.683,280,256,280z"/>
        </g>
        </g>
        <g>
        <g>
            <path d="M325.054,64.369c-26.021-21.01-60.077-28.934-93.421-21.745c-5.399,1.164-8.832,6.484-7.668,11.883
			c1.164,5.398,6.485,8.828,11.883,7.667c27.409-5.91,55.345,0.561,76.643,17.755C333.786,97.124,346,122.663,346,150
			c0,49.626-40.374,90-90,90c-49.626,0-90-40.374-90-90c0-14.824,3.68-29.518,10.642-42.492c2.611-4.866,0.783-10.928-4.083-13.54
			c-4.867-2.612-10.93-0.783-13.54,4.083C150.502,113.924,146,131.887,146,150c0,60.654,49.346,110,110,110s110-49.346,110-110
                C366,116.589,351.076,85.378,325.054,64.369z"/>
        </g>
        </g>
        <g>
        </g>
        <g>
        </g>
        <g>
        </g>
        <g>
        </g>
        <g>
        </g>
        <g>
        </g>
        <g>
        </g>
        <g>
        </g>
        <g>
        </g>
        <g>
        </g>
        <g>
        </g>
        <g>
        </g>
        <g>
        </g>
        <g>
        </g>
        <g>
        </g>
    </symbol>

    <symbol id="mouse" viewBox="0 0 275.07 275.07">
        <g><g>
            <path d="M137.536,44.17c-7.221,0-13.096,5.875-13.096,13.096c0,7.222,5.875,13.098,13.096,13.098   c7.221,0,13.096-5.876,13.096-13.098C150.632,50.045,144.757,44.17,137.536,44.17z" data-original="#000000" class="active-path" data-old_color="#000000" fill="#FFFFFF"/>
            <path d="M137.535,0C94.098,0,58.759,39.148,58.759,87.268v100.535c0,48.119,35.339,87.268,78.776,87.268   s78.776-39.148,78.776-87.268V87.268C216.312,39.148,180.973,0,137.535,0z M201.312,187.803c0,39.849-28.61,72.268-63.776,72.268   c-35.167,0-63.776-32.419-63.776-72.268V87.268c0-39.849,28.61-72.268,63.776-72.268c35.166,0,63.776,32.419,63.776,72.268V187.803   z" data-original="#000000" class="active-path" data-old_color="#000000" fill="#FFFFFF"/>
        </g></g> 
    </symbol>

    <symbol id="phone" viewBox="0 0 513.64 513.64">
        <g>
            <path d="M499.66,376.96l-71.68-71.68c-25.6-25.6-69.12-15.359-79.36,17.92c-7.68,23.041-33.28,35.841-56.32,30.72    c-51.2-12.8-120.32-79.36-133.12-133.12c-7.68-23.041,7.68-48.641,30.72-56.32c33.28-10.24,43.52-53.76,17.92-79.36l-71.68-71.68    c-20.48-17.92-51.2-17.92-69.12,0l-48.64,48.64c-48.64,51.2,5.12,186.88,125.44,307.2c120.32,120.32,256,176.641,307.2,125.44    l48.64-48.64C517.581,425.6,517.581,394.88,499.66,376.96z" data-original="#000000" class="active-path" data-old_color="#000000" fill="#FFFFFF"/>
        </g>
    </symbol>

    <symbol id="quote" viewBox="0 0 508.044 508.044">
        <g>
            <path d="M0.108,352.536c0,66.794,54.144,120.938,120.937,120.938c66.794,0,120.938-54.144,120.938-120.938    s-54.144-120.937-120.938-120.937c-13.727,0-26.867,2.393-39.168,6.61C109.093,82.118,230.814-18.543,117.979,64.303    C-7.138,156.17-0.026,348.84,0.114,352.371C0.114,352.426,0.108,352.475,0.108,352.536z" data-original="#000000" class="active-path" data-old_color="#000000" fill="#19B5FE"/>
            <path d="M266.169,352.536c0,66.794,54.144,120.938,120.938,120.938s120.938-54.144,120.938-120.938S453.9,231.599,387.106,231.599    c-13.728,0-26.867,2.393-39.168,6.61C375.154,82.118,496.875-18.543,384.04,64.303C258.923,156.17,266.034,348.84,266.175,352.371    C266.175,352.426,266.169,352.475,266.169,352.536z" data-original="#000000" class="active-path" data-old_color="#000000" fill="#19B5FE"/>
        </g>
    </symbol>    

    <symbol id="skype" viewBox="0 0 512 512">
        <g>
            <path d="M491.533,305.92c7.874-37.339,6.79-76.306-3.2-113.149c-10.93-40.31-32.405-77.314-62.1-107.01    s-66.7-51.17-107.011-62.099c-36.842-9.989-75.81-11.073-113.151-3.2C181.627,5.167,152.634-1.916,123.653,0.446    C91.902,3.035,61.995,16.883,39.439,39.439S3.037,91.901,0.446,123.652c-2.364,28.982,4.719,57.972,20.016,82.419    c-7.874,37.339-6.79,76.307,3.2,113.151c10.93,40.311,32.404,77.314,62.099,107.01c29.695,29.696,66.699,51.17,107.009,62.099    c36.842,9.99,75.811,11.074,113.15,3.201c21.366,13.37,46.201,20.469,71.469,20.468c3.644,0,7.3-0.148,10.953-0.445    c31.753-2.588,61.662-16.437,84.219-38.994s36.404-52.467,38.993-84.219C513.918,359.361,506.831,330.366,491.533,305.92z     M323.275,369.666c-18.169,13.074-42.059,20.273-67.27,20.273s-49.101-7.2-67.27-20.273    c-19.735-14.201-30.603-33.578-30.603-54.565c0-8.691,7.046-15.738,15.738-15.738s15.738,7.046,15.738,15.738    c0,23.505,30.405,43.364,66.397,43.364s66.397-19.858,66.397-43.364c0-21.626-37.386-34.273-73.54-46.503    c-20.508-6.937-41.715-14.111-58.07-23.703c-21.671-12.711-32.66-28.859-32.66-47.996c0-20.987,10.867-40.365,30.603-54.565    c18.169-13.074,42.059-20.273,67.27-20.273c25.211,0,49.101,7.2,67.27,20.273c19.735,14.201,30.603,33.578,30.603,54.565    c0,8.692-7.046,15.738-15.738,15.738s-15.738-7.046-15.738-15.738c0-23.505-30.406-43.364-66.397-43.364    c-35.991,0-66.397,19.858-66.397,43.364c0,18.427,36.838,30.889,69.341,41.884c44.496,15.053,94.93,32.112,94.93,76.319    C353.878,336.088,343.01,355.466,323.275,369.666z" data-original="#000000" class="active-path" data-old_color="#000000" fill="#FFFFFF"/>
        </g>
    </symbol>

    <symbol id="smartphone" viewBox="0 0 512 512">
        <g><g>
        <g>
            <path d="M298.667,25.6h-85.333c-4.71,0-8.533,3.823-8.533,8.533c0,4.71,3.823,8.533,8.533,8.533h85.333    c4.71,0,8.533-3.823,8.533-8.533C307.2,29.423,303.377,25.6,298.667,25.6z" data-original="#000000" class="active-path" data-old_color="#000000" fill="#FFFFFF"/>
        </g>
        </g><g>
        <g>
            <path d="M358.4,25.6h-8.533c-4.71,0-8.533,3.823-8.533,8.533c0,4.71,3.823,8.533,8.533,8.533h8.533    c4.71,0,8.533-3.823,8.533-8.533C366.933,29.423,363.11,25.6,358.4,25.6z" data-original="#000000" class="active-path" data-old_color="#000000" fill="#FFFFFF"/>
        </g>
        </g><g>
        <g>
            <path d="M266.598,435.2H245.41c-12.979,0-23.543,10.564-23.543,23.543v4.122c0,12.979,10.564,23.535,23.535,23.535h21.188    c12.979,0,23.543-10.556,23.543-23.535v-4.122C290.133,445.764,279.569,435.2,266.598,435.2z M273.067,462.865    c0,3.567-2.901,6.468-6.468,6.468H245.41c-3.575,0-6.477-2.901-6.477-6.468v-4.122c0-3.575,2.901-6.477,6.477-6.477h21.18    c3.576,0,6.477,2.901,6.477,6.477V462.865z" data-original="#000000" class="active-path" data-old_color="#000000" fill="#FFFFFF"/>
        </g>
        </g><g>
        <g>
            <path d="M370.227,0H141.781c-17.007,0-30.848,13.841-30.848,30.848v450.304c0,17.007,13.841,30.848,30.848,30.848h228.437    c17.007,0,30.848-13.841,30.848-30.839V30.848C401.067,13.841,387.226,0,370.227,0z M384,481.152    c0,7.595-6.178,13.781-13.773,13.781H141.781c-7.603,0-13.781-6.187-13.781-13.773V30.848c0-7.595,6.178-13.781,13.781-13.781    h228.437c7.603,0,13.781,6.187,13.781,13.781V481.152z" data-original="#000000" class="active-path" data-old_color="#000000" fill="#FFFFFF"/>
        </g>
        </g><g>
        <g>
            <path d="M392.533,51.2H119.467c-4.71,0-8.533,3.823-8.533,8.533v358.4c0,4.71,3.823,8.533,8.533,8.533h273.067    c4.71,0,8.533-3.823,8.533-8.533v-358.4C401.067,55.023,397.244,51.2,392.533,51.2z M384,409.6H128V68.267h256V409.6z" data-original="#000000" class="active-path" data-old_color="#000000" fill="#FFFFFF"/>
        </g>
        </g></g>
    </symbol>

    <symbol id="team" viewBox="0 0 512 512">
        <g><g>
        <g>
            <path d="M451.72,237.26c-17.422-8.71-50.087-8.811-51.469-8.811c-4.142,0-7.5,3.358-7.5,7.5c0,4.142,3.358,7.5,7.5,7.5    c8.429,0.001,32.902,1.299,44.761,7.228c1.077,0.539,2.221,0.793,3.348,0.793c2.751,0,5.4-1.52,6.714-4.147    C456.927,243.618,455.425,239.113,451.72,237.26z" data-original="#000000" class="active-path" fill="#000000"/>
        </g>
        </g><g>
        <g>
            <path d="M489.112,344.041l-30.975-8.85c-1.337-0.382-2.271-1.62-2.271-3.011v-10.339c2.52-1.746,4.924-3.7,7.171-5.881    c10.89-10.568,16.887-24.743,16.887-39.915v-14.267l2.995-5.989c3.287-6.575,5.024-13.936,5.024-21.286v-38.65    c0-4.142-3.358-7.5-7.5-7.5H408.27c-26.244,0-47.596,21.352-47.596,47.596v0.447c0,6.112,1.445,12.233,4.178,17.699l3.841,7.682    v12.25c0,19.414,9.567,36.833,24.058,47.315l0.002,10.836c0,1.671,0,2.363-6.193,4.133l-15.114,4.318l-43.721-15.898    c0.157-2.063-0.539-4.161-2.044-5.742l-13.971-14.678v-24.64c1.477-1.217,2.933-2.467,4.344-3.789    c17.625-16.52,27.733-39.844,27.733-63.991v-19.678c5.322-11.581,8.019-23.836,8.019-36.457v-80.19c0-4.142-3.358-7.5-7.5-7.5    H232.037c-39.51,0-71.653,32.144-71.653,71.653v16.039c0,12.621,2.697,24.876,8.019,36.457v16.931    c0,28.036,12.466,53.294,32.077,69.946v25.22l-13.971,14.678c-1.505,1.581-2.201,3.679-2.044,5.742l-46.145,16.779    c-3.344,1.216-6.451,2.863-9.272,4.858l-7.246-3.623c21.57-9.389,28.403-22.594,28.731-23.25c1.056-2.111,1.056-4.597,0-6.708    c-5.407-10.814-6.062-30.635-6.588-46.561c-0.175-5.302-0.341-10.311-0.658-14.771c-2.557-35.974-29.905-63.103-63.615-63.103    s-61.059,27.128-63.615,63.103c-0.317,4.461-0.483,9.47-0.658,14.773c-0.526,15.925-1.182,35.744-6.588,46.558    c-1.056,2.111-1.056,4.597,0,6.708c0.328,0.656,7.147,13.834,28.76,23.234l-20.127,10.063C6.684,358.176,0,368.991,0,381.02    v55.409c0,4.142,3.358,7.5,7.5,7.5s7.5-3.358,7.5-7.5V381.02c0-6.312,3.507-11.987,9.152-14.81l25.063-12.531l8.718,8.285    c6.096,5.793,13.916,8.688,21.739,8.688c7.821,0,15.645-2.897,21.739-8.688l8.717-8.284l8.172,4.086    c-3.848,6.157-6.032,13.377-6.032,20.94v57.725c0,4.142,3.358,7.5,7.5,7.5c4.142,0,7.5-3.358,7.5-7.5v-57.725    c0-10.296,6.501-19.578,16.178-23.097l48.652-17.691l20.253,30.381c2.589,3.884,6.738,6.375,11.383,6.835    c0.518,0.051,1.033,0.076,1.547,0.076c4.098,0,8.023-1.613,10.957-4.546l12.356-12.356v78.124c0,4.142,3.358,7.5,7.5,7.5    c4.142,0,7.5-3.358,7.5-7.5v-78.124l12.356,12.356c2.933,2.934,6.858,4.547,10.957,4.547c0.513,0,1.029-0.025,1.546-0.076    c4.646-0.46,8.795-2.951,11.384-6.835l20.254-30.38l48.651,17.691c9.676,3.519,16.178,12.801,16.178,23.097v57.725    c0,4.142,3.358,7.5,7.5,7.5c4.142,0,7.5-3.358,7.5-7.5v-57.725c0-10.428-4.143-20.208-11.093-27.441l1.853-0.529    c1.869-0.534,4.419-1.265,6.979-2.52l19.149,19.149v69.066c0,4.142,3.358,7.5,7.5,7.5c4.142,0,7.5-3.358,7.5-7.5v-69.066    l19.016-19.016c1.011,0.514,2.073,0.948,3.191,1.267l30.976,8.85c7.07,2.02,12.009,8.567,12.009,15.921v62.044    c0,4.142,3.358,7.5,7.5,7.5c4.142,0,7.5-3.358,7.5-7.5v-62.044C512,360.371,502.588,347.892,489.112,344.041z M48.115,330.794    c-14.029-5.048-21.066-11.778-24.07-15.453c2.048-5.354,3.376-11.486,4.275-17.959c4.136,9.917,11.063,18.383,19.795,24.423    V330.794z M91.08,351.092c-6.397,6.078-16.418,6.077-22.813-0.001l-6.975-6.628c1.177-2.205,1.824-4.705,1.824-7.324v-7.994    c5.232,1.635,10.794,2.517,16.558,2.517c5.757,0,11.316-0.886,16.557-2.512l-0.001,7.988c0,2.62,0.646,5.121,1.824,7.327    L91.08,351.092z M79.676,316.662c-22.396,0-40.615-18.22-40.615-40.615c0-4.142-3.358-7.5-7.5-7.5c-0.42,0-0.83,0.043-1.231,0.11    c0.022-0.645,0.043-1.291,0.065-1.93c0.167-5.157,0.328-10.028,0.625-14.206c0.958-13.476,6.343-25.894,15.163-34.968    c8.899-9.156,20.793-14.198,33.491-14.198s24.591,5.042,33.491,14.198c8.82,9.074,14.205,21.492,15.163,34.968    c0.296,4.177,0.458,9.047,0.628,14.203c0.015,0.443,0.03,0.892,0.045,1.338c-8.16-12.572-20.762-21.837-37.045-27.069    c-15.043-4.833-27.981-4.534-28.527-4.52c-1.964,0.055-3.828,0.877-5.191,2.291l-13.532,14.034    c-2.875,2.982-2.789,7.73,0.193,10.605s7.73,2.788,10.605-0.193l11.26-11.677c9.697,0.474,40.894,4.102,53.027,30.819    C116.738,302.04,99.816,316.662,79.676,316.662z M111.229,330.819l0.001-8.945c8.725-6.007,15.662-14.457,19.801-24.449    c0.899,6.458,2.226,12.576,4.27,17.918C132.314,318.983,125.244,325.773,111.229,330.819z M183.403,209.145v-18.608    c0-1.129-0.255-2.244-0.746-3.261c-4.826-9.994-7.273-20.598-7.273-31.518V139.72c0-31.239,25.415-56.653,56.653-56.653h104.769    v72.692c0,10.92-2.447,21.524-7.273,31.518c-0.491,1.017-0.746,2.132-0.746,3.261v21.355c0,20.311-8.165,39.15-22.991,53.047    c-1.851,1.734-3.772,3.36-5.758,4.875c-0.044,0.03-0.086,0.063-0.129,0.094c-13.889,10.545-30.901,15.67-48.667,14.519    C213.201,281.965,183.403,248.897,183.403,209.145z M225.632,360.056c-0.052,0.052-0.173,0.175-0.418,0.149    c-0.244-0.024-0.34-0.167-0.381-0.229l-23.325-34.988l7.506-7.887l35.385,24.187L225.632,360.056z M256.095,331.113    l-40.615-27.762v-14c10.509,5.681,22.276,9.234,34.791,10.044c1.977,0.128,3.942,0.191,5.901,0.191    c14.341,0,28.143-3.428,40.538-9.935v13.7L256.095,331.113z M287.357,359.978c-0.041,0.062-0.137,0.205-0.381,0.229    c-0.245,0.031-0.365-0.098-0.418-0.149l-18.767-18.767l35.385-24.188l7.507,7.887L287.357,359.978z M424.308,353.65l-17.02-17.019    c0.297-1.349,0.465-2.826,0.464-4.455l-0.001-3.165c4.723,1.55,9.701,2.47,14.852,2.624c0.578,0.018,1.151,0.026,1.727,0.026    c5.692,0,11.248-0.86,16.536-2.501v3.02c0,1.496,0.188,2.962,0.542,4.371L424.308,353.65z M452.591,305.196    c-7.949,7.714-18.45,11.788-29.537,11.446c-21.704-0.651-39.361-19.768-39.361-42.613v-14.021c0-1.165-0.271-2.313-0.792-3.354    l-4.633-9.266c-1.697-3.395-2.594-7.195-2.594-10.991v-0.447c0-17.974,14.623-32.596,32.596-32.596h64.673v31.15    c0,5.034-1.19,10.075-3.441,14.578l-3.786,7.572c-0.521,1.042-0.792,2.189-0.792,3.354v16.038    C464.924,287.126,460.544,297.478,452.591,305.196z" data-original="#000000" class="active-path" fill="#000000"/>
        </g>
        </g><g>
        <g>
            <path d="M472.423,380.814c-4.142,0-7.5,3.358-7.5,7.5v48.115c0,4.142,3.358,7.5,7.5,7.5c4.142,0,7.5-3.358,7.5-7.5v-48.115    C479.923,384.173,476.565,380.814,472.423,380.814z" data-original="#000000" class="active-path" fill="#000000"/>
        </g>
        </g><g>
        <g>
            <path d="M39.577,390.728c-4.142,0-7.5,3.358-7.5,7.5v38.201c0,4.142,3.358,7.5,7.5,7.5c4.142,0,7.5-3.358,7.5-7.5v-38.201    C47.077,394.087,43.719,390.728,39.577,390.728z" data-original="#000000" class="active-path" fill="#000000"/>
        </g>
        </g><g>
        <g>
            <path d="M317.532,158.475c-28.366-28.366-87.715-22.943-111.917-19.295c-7.623,1.149-13.155,7.6-13.155,15.339v17.278    c0,4.142,3.358,7.5,7.5,7.5c4.142,0,7.5-3.358,7.5-7.5v-17.279c0-0.255,0.168-0.473,0.392-0.507    c9.667-1.457,28.85-3.705,48.725-2.38c23.388,1.557,40.328,7.428,50.349,17.45c2.929,2.929,7.678,2.929,10.606,0    C320.461,166.152,320.461,161.403,317.532,158.475z" data-original="#000000" class="active-path" fill="#000000"/>
        </g>
        </g><g>
        <g>
            <path d="M167.884,396.853c-4.142,0-7.5,3.358-7.5,7.5v32.077c0,4.142,3.358,7.5,7.5,7.5c4.142,0,7.5-3.358,7.5-7.5v-32.077    C175.384,400.212,172.026,396.853,167.884,396.853z" data-original="#000000" class="active-path" fill="#000000"/>
        </g>
        </g><g>
        <g>
            <path d="M344.306,396.853c-4.142,0-7.5,3.358-7.5,7.5v32.077c0,4.142,3.358,7.5,7.5,7.5c4.142,0,7.5-3.358,7.5-7.5v-32.077    C351.806,400.212,348.448,396.853,344.306,396.853z" data-original="#000000" class="active-path" fill="#000000"/>
        </g>
        </g></g> 
    </symbol>

    <symbol id="telegram" viewBox="0 0 24 24">
        <g>
            <path d="m.415 11.196 5.869 2.925c.227.112.495.104.712-.023l5.224-3.037-3.162 2.802c-.161.143-.253.347-.253.562v6.825c0 .72.919 1.023 1.35.451l2.537-3.373 6.274 3.573c.44.253 1.004-.001 1.106-.504l3.913-19.5c.117-.586-.466-1.064-1.008-.846l-22.5 8.775c-.604.236-.643 1.081-.062 1.37zm21.83-8.249-3.439 17.137-5.945-3.386c-.324-.185-.741-.103-.971.201l-1.585 2.107v-4.244l8.551-7.576c.677-.599-.101-1.664-.874-1.21l-11.39 6.622-3.992-1.989z" data-original="#000000" class="active-path" data-old_color="#000000" fill="#FFFFFF"/>
        </g>
    </symbol>

    <symbol id="time" viewBox="0 0 128 128">
        <path d="M92.9,31.587l4.157-5.842a1.75,1.75,0,0,0-.411-2.44l-4.89-3.48a1.751,1.751,0,0,0-2.44.41l-4.72,6.625A49.985,49.985,0,0,0,68.75,22.673V6.5A1.75,1.75,0,0,0,67,4.75H61A1.75,1.75,0,0,0,59.25,6.5V22.673A49.985,49.985,0,0,0,43.405,26.86l-4.72-6.625a1.75,1.75,0,0,0-2.44-.41l-4.89,3.48a1.75,1.75,0,0,0-.411,2.44L35.1,31.587a50.4,50.4,0,1,0,57.8,0Zm-1.749-7.9,2.039,1.451L89.97,29.666q-1.077-.65-2.189-1.246ZM62.75,8.25h2.5V22.474c-.417-.01-.831-.032-1.25-.032s-.833.021-1.25.032ZM34.811,25.142,36.85,23.69l3.369,4.729q-1.111.6-2.189,1.246ZM64,119.75a46.9,46.9,0,1,1,46.9-46.9A46.957,46.957,0,0,1,64,119.75Z"/>
        <path d="M95.565,41.653a1.325,1.325,0,0,0-.373-.373,44.314,44.314,0,0,0-62.385,0,1.325,1.325,0,0,0-.373.373,44.313,44.313,0,0,0,0,62.384,1.345,1.345,0,0,0,.379.379,44.312,44.312,0,0,0,62.378,0,1.345,1.345,0,0,0,.379-.379,44.313,44.313,0,0,0,0-62.384ZM100.654,74.6h4.206a40.744,40.744,0,0,1-10.742,25.893l-2.962-2.962A1.75,1.75,0,1,0,88.681,100l2.962,2.962A40.742,40.742,0,0,1,65.75,113.706V109.5a1.75,1.75,0,0,0-3.5,0v4.206a40.742,40.742,0,0,1-25.893-10.742L39.319,100a1.75,1.75,0,1,0-2.475-2.475l-2.962,2.962A40.744,40.744,0,0,1,23.141,74.6h4.206a1.75,1.75,0,1,0,0-3.5H23.141A40.742,40.742,0,0,1,33.882,45.2l2.962,2.962a1.75,1.75,0,0,0,2.475-2.475l-2.962-2.962A40.743,40.743,0,0,1,62.25,31.987v4.206a1.75,1.75,0,0,0,3.5,0V31.987A40.743,40.743,0,0,1,91.643,42.729L88.681,45.69a1.75,1.75,0,1,0,2.475,2.475L94.118,45.2A40.742,40.742,0,0,1,104.859,71.1h-4.206a1.75,1.75,0,1,0,0,3.5Z"/>
        <path d="M80.952,53.413,66.634,67.74a5.741,5.741,0,0,0-7.739,7.74L56.1,78.272a1.75,1.75,0,1,0,2.475,2.475l2.794-2.794a5.741,5.741,0,0,0,7.737-7.737l14.32-14.329a1.75,1.75,0,1,0-2.476-2.475ZM64,75.1a2.25,2.25,0,1,1,2.25-2.25A2.253,2.253,0,0,1,64,75.1Z"/>
    </symbol>

    <symbol id="training" viewBox="0 0 64 64">
        <path d="m63 31v-30h-42v10h-5.54c.954-1.063 1.54-2.462 1.54-4 0-3.309-2.691-6-6-6s-6 2.691-6 6c0 1.796.797 3.406 2.051 4.506-3.516 1.225-6.051 4.565-6.051 8.494v3c0 2.206 1.794 4 4 4v10.5c0 .539.133 1.044.351 1.5h-4.351v8h4.35c-.222.627-.35 1.298-.35 2 0 1.796.797 3.406 2.051 4.506-3.516 1.225-6.051 4.565-6.051 8.494v1h18 2 16 2 18v-1c0-3.929-2.535-7.269-6.051-8.494 1.254-1.1 2.051-2.71 2.051-4.506 0-.702-.128-1.373-.35-2h10.35v-8h-6.434l-4.8-8zm-40-28h38v26h-38v-12h3c1.302 0 2.402-.839 2.816-2h12.184v-10h-16v6h-2zm-6.351 36c.218-.456.351-.961.351-1.5v-20.5h4v14h11.234l-4.8 8zm17.917-8h2.668l-4.8 8h-2.668zm4.434.944v7.056h-4.234zm2-.944h2v8h-2zm4 .944 4.234 7.056h-4.234zm-16.184-18.944c-.302-.847-.969-1.514-1.816-1.816v-4.184h12v6zm-17.816-10c2.206 0 4 1.794 4 4s-1.794 4-4 4-4-1.794-4-4 1.794-4 4-4zm-4 34.5v-17.5h-2v5c-1.103 0-2-.897-2-2v-3c0-3.86 3.14-7 7-7h16c.551 0 1 .449 1 1s-.449 1-1 1h-11v22.5c0 .827-.673 1.5-1.5 1.5s-1.5-.673-1.5-1.5v-13.5h-2v13.5c0 .827-.673 1.5-1.5 1.5s-1.5-.673-1.5-1.5zm4 7.5c2.206 0 4 1.794 4 4s-1.794 4-4 4-4-1.794-4-4 1.794-4 4-4zm-7.929 16c.487-3.388 3.408-6 6.929-6h2c3.521 0 6.442 2.612 6.929 6zm11.878-7.494c1.254-1.1 2.051-2.71 2.051-4.506 0-.702-.128-1.373-.35-2h6.7c-.222.627-.35 1.298-.35 2 0 1.796.797 3.406 2.051 4.506-2.193.764-4 2.348-5.051 4.389-1.052-2.041-2.859-3.625-5.051-4.389zm18.051-4.506c0 2.206-1.794 4-4 4s-4-1.794-4-4 1.794-4 4-4 4 1.794 4 4zm-11.929 12c.487-3.388 3.408-6 6.929-6h2c3.521 0 6.442 2.612 6.929 6zm11.878-7.494c1.254-1.1 2.051-2.71 2.051-4.506 0-.702-.128-1.373-.35-2h6.7c-.222.627-.35 1.298-.35 2 0 1.796.797 3.406 2.051 4.506-2.193.764-4 2.348-5.051 4.389-1.052-2.041-2.859-3.625-5.051-4.389zm15.051 1.494c3.521 0 6.442 2.612 6.929 6h-15.858c.487-3.388 3.408-6 6.929-6zm-1-2c-2.206 0-4-1.794-4-4s1.794-4 4-4 4 1.794 4 4-1.794 4-4 4zm14-8h-9.54c-1.099-1.224-2.688-2-4.46-2s-3.36.776-4.46 2h-9.08c-1.099-1.224-2.688-2-4.46-2s-3.36.776-4.46 2h-9.08c-1.099-1.224-2.688-2-4.46-2s-3.36.776-4.46 2h-3.54v-4h58zm-6.766-6h-2.668l-4.8-8h2.668z"/>
        <path d="m41 23v2h-2v-8h-2v8h-2v2h24v-14h-2v12h-2v-10h-2v10h-2v-4h-2v4h-2v-6h-2v6h-2v-2z"/>
        <path d="m43 5h2v2h-2z"/>
        <path d="m47 5h12v2h-12z"/>
        <path d="m43 9h16v2h-16z"/>
        <path d="m25 21h2v2h-2z"/>
        <path d="m25 25h2v2h-2z"/>
    </symbol>

    <symbol id="whatsapp" viewBox="-23 -21 682 682.66669">
        <g>
            <path d="m544.386719 93.007812c-59.875-59.945312-139.503907-92.9726558-224.335938-93.007812-174.804687 0-317.070312 142.261719-317.140625 317.113281-.023437 55.894531 14.578125 110.457031 42.332032 158.550781l-44.992188 164.335938 168.121094-44.101562c46.324218 25.269531 98.476562 38.585937 151.550781 38.601562h.132813c174.785156 0 317.066406-142.273438 317.132812-317.132812.035156-84.742188-32.921875-164.417969-92.800781-224.359376zm-224.335938 487.933594h-.109375c-47.296875-.019531-93.683594-12.730468-134.160156-36.742187l-9.621094-5.714844-99.765625 26.171875 26.628907-97.269531-6.269532-9.972657c-26.386718-41.96875-40.320312-90.476562-40.296875-140.28125.054688-145.332031 118.304688-263.570312 263.699219-263.570312 70.40625.023438 136.589844 27.476562 186.355469 77.300781s77.15625 116.050781 77.132812 186.484375c-.0625 145.34375-118.304687 263.59375-263.59375 263.59375zm144.585938-197.417968c-7.921875-3.96875-46.882813-23.132813-54.148438-25.78125-7.257812-2.644532-12.546875-3.960938-17.824219 3.96875-5.285156 7.929687-20.46875 25.78125-25.09375 31.066406-4.625 5.289062-9.242187 5.953125-17.167968 1.984375-7.925782-3.964844-33.457032-12.335938-63.726563-39.332031-23.554687-21.011719-39.457031-46.960938-44.082031-54.890626-4.617188-7.9375-.039062-11.8125 3.476562-16.171874 8.578126-10.652344 17.167969-21.820313 19.808594-27.105469 2.644532-5.289063 1.320313-9.917969-.664062-13.882813-1.976563-3.964844-17.824219-42.96875-24.425782-58.839844-6.4375-15.445312-12.964843-13.359374-17.832031-13.601562-4.617187-.230469-9.902343-.277344-15.1875-.277344-5.28125 0-13.867187 1.980469-21.132812 9.917969-7.261719 7.933594-27.730469 27.101563-27.730469 66.105469s28.394531 76.683594 32.355469 81.972656c3.960937 5.289062 55.878906 85.328125 135.367187 119.648438 18.90625 8.171874 33.664063 13.042968 45.175782 16.695312 18.984374 6.03125 36.253906 5.179688 49.910156 3.140625 15.226562-2.277344 46.878906-19.171875 53.488281-37.679687 6.601563-18.511719 6.601563-34.375 4.617187-37.683594-1.976562-3.304688-7.261718-5.285156-15.183593-9.253906zm0 0" fill-rule="evenodd" data-original="#000000" class="active-path" data-old_color="#000000" fill="#FFFFFF"/>
        </g>
    </symbol>
</svg>